<mxfile host="Electron" agent="Mozilla/5.0 (Macintosh; Intel Mac OS X 10_15_7) AppleWebKit/537.36 (KHTML, like Gecko) draw.io/28.2.8 Chrome/140.0.7339.240 Electron/38.4.0 Safari/537.36" version="28.2.8">
  <diagram name="PÃ¡gina-1" id="lNWm3RPVkYr5qVB4js5Q">
    <mxGraphModel dx="1220" dy="793" grid="1" gridSize="10" guides="1" tooltips="1" connect="1" arrows="1" fold="1" page="1" pageScale="1" pageWidth="1169" pageHeight="827" math="0" shadow="0">
      <root>
        <mxCell id="0" />
        <mxCell id="1" parent="0" />
        <mxCell id="5xnsENIm2od7bIKtMCNN-10" style="edgeStyle=orthogonalEdgeStyle;rounded=0;orthogonalLoop=1;jettySize=auto;html=1;entryX=0.5;entryY=1;entryDx=0;entryDy=0;endArrow=none;endFill=0;" edge="1" parent="1" source="5xnsENIm2od7bIKtMCNN-1" target="5xnsENIm2od7bIKtMCNN-5">
          <mxGeometry relative="1" as="geometry">
            <Array as="points">
              <mxPoint x="574" y="120" />
            </Array>
          </mxGeometry>
        </mxCell>
        <mxCell id="5xnsENIm2od7bIKtMCNN-11" style="edgeStyle=orthogonalEdgeStyle;shape=connector;rounded=0;orthogonalLoop=1;jettySize=auto;html=1;entryX=1;entryY=0.5;entryDx=0;entryDy=0;strokeColor=default;align=center;verticalAlign=middle;fontFamily=Helvetica;fontSize=11;fontColor=default;labelBackgroundColor=default;endArrow=none;endFill=0;" edge="1" parent="1" source="5xnsENIm2od7bIKtMCNN-1" target="5xnsENIm2od7bIKtMCNN-2">
          <mxGeometry relative="1" as="geometry">
            <Array as="points">
              <mxPoint x="574" y="200" />
            </Array>
          </mxGeometry>
        </mxCell>
        <mxCell id="5xnsENIm2od7bIKtMCNN-12" style="edgeStyle=orthogonalEdgeStyle;shape=connector;rounded=0;orthogonalLoop=1;jettySize=auto;html=1;entryX=1;entryY=0.5;entryDx=0;entryDy=0;strokeColor=default;align=center;verticalAlign=middle;fontFamily=Helvetica;fontSize=11;fontColor=default;labelBackgroundColor=default;endArrow=none;endFill=0;" edge="1" parent="1" source="5xnsENIm2od7bIKtMCNN-1" target="5xnsENIm2od7bIKtMCNN-9">
          <mxGeometry relative="1" as="geometry">
            <Array as="points">
              <mxPoint x="574" y="150" />
            </Array>
          </mxGeometry>
        </mxCell>
        <mxCell id="5xnsENIm2od7bIKtMCNN-13" style="edgeStyle=orthogonalEdgeStyle;shape=connector;rounded=0;orthogonalLoop=1;jettySize=auto;html=1;entryX=1;entryY=1;entryDx=0;entryDy=0;strokeColor=default;align=center;verticalAlign=middle;fontFamily=Helvetica;fontSize=11;fontColor=default;labelBackgroundColor=default;endArrow=none;endFill=0;" edge="1" parent="1" source="5xnsENIm2od7bIKtMCNN-1" target="5xnsENIm2od7bIKtMCNN-4">
          <mxGeometry relative="1" as="geometry">
            <Array as="points">
              <mxPoint x="574" y="140" />
              <mxPoint x="485" y="140" />
            </Array>
          </mxGeometry>
        </mxCell>
        <mxCell id="5xnsENIm2od7bIKtMCNN-15" style="edgeStyle=orthogonalEdgeStyle;shape=connector;rounded=0;orthogonalLoop=1;jettySize=auto;html=1;entryX=0;entryY=1;entryDx=0;entryDy=0;strokeColor=default;align=center;verticalAlign=middle;fontFamily=Helvetica;fontSize=11;fontColor=default;labelBackgroundColor=default;endArrow=none;endFill=0;" edge="1" parent="1" source="5xnsENIm2od7bIKtMCNN-1" target="5xnsENIm2od7bIKtMCNN-6">
          <mxGeometry relative="1" as="geometry" />
        </mxCell>
        <mxCell id="5xnsENIm2od7bIKtMCNN-17" style="edgeStyle=orthogonalEdgeStyle;shape=connector;rounded=0;orthogonalLoop=1;jettySize=auto;html=1;entryX=0;entryY=0.5;entryDx=0;entryDy=0;strokeColor=default;align=center;verticalAlign=middle;fontFamily=Helvetica;fontSize=11;fontColor=default;labelBackgroundColor=default;endArrow=none;endFill=0;" edge="1" parent="1" source="5xnsENIm2od7bIKtMCNN-1" target="5xnsENIm2od7bIKtMCNN-8">
          <mxGeometry relative="1" as="geometry">
            <Array as="points">
              <mxPoint x="574" y="190" />
            </Array>
          </mxGeometry>
        </mxCell>
        <mxCell id="5xnsENIm2od7bIKtMCNN-18" style="edgeStyle=orthogonalEdgeStyle;shape=connector;rounded=0;orthogonalLoop=1;jettySize=auto;html=1;entryX=0;entryY=0.5;entryDx=0;entryDy=0;strokeColor=default;align=center;verticalAlign=middle;fontFamily=Helvetica;fontSize=11;fontColor=default;labelBackgroundColor=default;endArrow=none;endFill=0;" edge="1" parent="1" source="5xnsENIm2od7bIKtMCNN-1" target="5xnsENIm2od7bIKtMCNN-7">
          <mxGeometry relative="1" as="geometry">
            <Array as="points">
              <mxPoint x="574" y="140" />
            </Array>
          </mxGeometry>
        </mxCell>
        <mxCell id="5xnsENIm2od7bIKtMCNN-22" style="edgeStyle=orthogonalEdgeStyle;shape=connector;rounded=0;orthogonalLoop=1;jettySize=auto;html=1;entryX=1;entryY=0.5;entryDx=0;entryDy=0;strokeColor=default;align=center;verticalAlign=middle;fontFamily=Helvetica;fontSize=11;fontColor=default;labelBackgroundColor=default;endArrow=none;endFill=0;" edge="1" parent="1" source="5xnsENIm2od7bIKtMCNN-1" target="5xnsENIm2od7bIKtMCNN-21">
          <mxGeometry relative="1" as="geometry">
            <Array as="points">
              <mxPoint x="504" y="250" />
              <mxPoint x="504" y="340" />
            </Array>
          </mxGeometry>
        </mxCell>
        <mxCell id="5xnsENIm2od7bIKtMCNN-52" style="edgeStyle=orthogonalEdgeStyle;shape=connector;rounded=0;orthogonalLoop=1;jettySize=auto;html=1;entryX=0;entryY=0.5;entryDx=0;entryDy=0;strokeColor=default;align=center;verticalAlign=middle;fontFamily=Helvetica;fontSize=11;fontColor=default;labelBackgroundColor=default;endArrow=none;endFill=0;" edge="1" parent="1" source="5xnsENIm2od7bIKtMCNN-1" target="5xnsENIm2od7bIKtMCNN-51">
          <mxGeometry relative="1" as="geometry" />
        </mxCell>
        <mxCell id="5xnsENIm2od7bIKtMCNN-59" style="edgeStyle=orthogonalEdgeStyle;shape=connector;rounded=0;orthogonalLoop=1;jettySize=auto;html=1;entryX=0;entryY=0.5;entryDx=0;entryDy=0;strokeColor=default;align=center;verticalAlign=middle;fontFamily=Helvetica;fontSize=11;fontColor=default;labelBackgroundColor=default;endArrow=none;endFill=0;" edge="1" parent="1" source="5xnsENIm2od7bIKtMCNN-1" target="5xnsENIm2od7bIKtMCNN-58">
          <mxGeometry relative="1" as="geometry">
            <Array as="points">
              <mxPoint x="574" y="210" />
              <mxPoint x="657" y="210" />
              <mxPoint x="657" y="240" />
            </Array>
          </mxGeometry>
        </mxCell>
        <mxCell id="5xnsENIm2od7bIKtMCNN-1" value="CAMIONERO" style="whiteSpace=wrap;html=1;align=center;fillColor=#dae8fc;strokeColor=#6c8ebf;" vertex="1" parent="1">
          <mxGeometry x="524" y="230" width="100" height="40" as="geometry" />
        </mxCell>
        <mxCell id="5xnsENIm2od7bIKtMCNN-2" value="id_Camionero (PK)" style="ellipse;whiteSpace=wrap;html=1;align=center;fillColor=#f5f5f5;fontColor=#333333;strokeColor=#666666;" vertex="1" parent="1">
          <mxGeometry x="370" y="180" width="100" height="40" as="geometry" />
        </mxCell>
        <mxCell id="5xnsENIm2od7bIKtMCNN-4" value="dni" style="ellipse;whiteSpace=wrap;html=1;align=center;fillColor=#f5f5f5;fontColor=#333333;strokeColor=#666666;" vertex="1" parent="1">
          <mxGeometry x="400" y="80" width="100" height="40" as="geometry" />
        </mxCell>
        <mxCell id="5xnsENIm2od7bIKtMCNN-5" value="nombre" style="ellipse;whiteSpace=wrap;html=1;align=center;fillColor=#f5f5f5;fontColor=#333333;strokeColor=#666666;" vertex="1" parent="1">
          <mxGeometry x="510" y="80" width="100" height="40" as="geometry" />
        </mxCell>
        <mxCell id="5xnsENIm2od7bIKtMCNN-6" value="telefono" style="ellipse;whiteSpace=wrap;html=1;align=center;fillColor=#f5f5f5;fontColor=#333333;strokeColor=#666666;" vertex="1" parent="1">
          <mxGeometry x="624" y="80" width="100" height="40" as="geometry" />
        </mxCell>
        <mxCell id="5xnsENIm2od7bIKtMCNN-7" value="direccion" style="ellipse;whiteSpace=wrap;html=1;align=center;fillColor=#f5f5f5;fontColor=#333333;strokeColor=#666666;" vertex="1" parent="1">
          <mxGeometry x="690" y="120" width="100" height="40" as="geometry" />
        </mxCell>
        <mxCell id="5xnsENIm2od7bIKtMCNN-8" value="salario" style="ellipse;whiteSpace=wrap;html=1;align=center;fillColor=#f5f5f5;fontColor=#333333;strokeColor=#666666;" vertex="1" parent="1">
          <mxGeometry x="680" y="170" width="100" height="40" as="geometry" />
        </mxCell>
        <mxCell id="5xnsENIm2od7bIKtMCNN-9" value="poblacion" style="ellipse;whiteSpace=wrap;html=1;align=center;fillColor=#f5f5f5;fontColor=#333333;strokeColor=#666666;" vertex="1" parent="1">
          <mxGeometry x="360" y="130" width="100" height="40" as="geometry" />
        </mxCell>
        <mxCell id="5xnsENIm2od7bIKtMCNN-32" style="edgeStyle=orthogonalEdgeStyle;shape=connector;rounded=0;orthogonalLoop=1;jettySize=auto;html=1;entryX=1;entryY=0.5;entryDx=0;entryDy=0;strokeColor=default;align=center;verticalAlign=middle;fontFamily=Helvetica;fontSize=11;fontColor=default;labelBackgroundColor=default;endArrow=none;endFill=0;" edge="1" parent="1" source="5xnsENIm2od7bIKtMCNN-20" target="5xnsENIm2od7bIKtMCNN-26">
          <mxGeometry relative="1" as="geometry" />
        </mxCell>
        <mxCell id="5xnsENIm2od7bIKtMCNN-33" style="edgeStyle=orthogonalEdgeStyle;shape=connector;rounded=0;orthogonalLoop=1;jettySize=auto;html=1;entryX=1;entryY=0.5;entryDx=0;entryDy=0;strokeColor=default;align=center;verticalAlign=middle;fontFamily=Helvetica;fontSize=11;fontColor=default;labelBackgroundColor=default;endArrow=none;endFill=0;" edge="1" parent="1" source="5xnsENIm2od7bIKtMCNN-20" target="5xnsENIm2od7bIKtMCNN-28">
          <mxGeometry relative="1" as="geometry" />
        </mxCell>
        <mxCell id="5xnsENIm2od7bIKtMCNN-34" style="edgeStyle=orthogonalEdgeStyle;shape=connector;rounded=0;orthogonalLoop=1;jettySize=auto;html=1;entryX=1;entryY=0.5;entryDx=0;entryDy=0;strokeColor=default;align=center;verticalAlign=middle;fontFamily=Helvetica;fontSize=11;fontColor=default;labelBackgroundColor=default;endArrow=none;endFill=0;" edge="1" parent="1" source="5xnsENIm2od7bIKtMCNN-20" target="5xnsENIm2od7bIKtMCNN-31">
          <mxGeometry relative="1" as="geometry" />
        </mxCell>
        <mxCell id="5xnsENIm2od7bIKtMCNN-35" style="edgeStyle=orthogonalEdgeStyle;shape=connector;rounded=0;orthogonalLoop=1;jettySize=auto;html=1;entryX=1;entryY=0.5;entryDx=0;entryDy=0;strokeColor=default;align=center;verticalAlign=middle;fontFamily=Helvetica;fontSize=11;fontColor=default;labelBackgroundColor=default;endArrow=none;endFill=0;" edge="1" parent="1" source="5xnsENIm2od7bIKtMCNN-20" target="5xnsENIm2od7bIKtMCNN-30">
          <mxGeometry relative="1" as="geometry" />
        </mxCell>
        <mxCell id="5xnsENIm2od7bIKtMCNN-36" style="edgeStyle=orthogonalEdgeStyle;shape=connector;rounded=0;orthogonalLoop=1;jettySize=auto;html=1;entryX=1;entryY=0.5;entryDx=0;entryDy=0;strokeColor=default;align=center;verticalAlign=middle;fontFamily=Helvetica;fontSize=11;fontColor=default;labelBackgroundColor=default;endArrow=none;endFill=0;" edge="1" parent="1" source="5xnsENIm2od7bIKtMCNN-20" target="5xnsENIm2od7bIKtMCNN-29">
          <mxGeometry relative="1" as="geometry" />
        </mxCell>
        <mxCell id="5xnsENIm2od7bIKtMCNN-41" style="edgeStyle=orthogonalEdgeStyle;shape=connector;rounded=0;orthogonalLoop=1;jettySize=auto;html=1;entryX=0;entryY=0.5;entryDx=0;entryDy=0;strokeColor=default;align=center;verticalAlign=middle;fontFamily=Helvetica;fontSize=11;fontColor=default;labelBackgroundColor=default;endArrow=none;endFill=0;" edge="1" parent="1" source="5xnsENIm2od7bIKtMCNN-20" target="5xnsENIm2od7bIKtMCNN-39">
          <mxGeometry relative="1" as="geometry">
            <Array as="points">
              <mxPoint x="330" y="440" />
              <mxPoint x="330" y="540" />
            </Array>
          </mxGeometry>
        </mxCell>
        <mxCell id="5xnsENIm2od7bIKtMCNN-44" style="edgeStyle=orthogonalEdgeStyle;shape=connector;rounded=0;orthogonalLoop=1;jettySize=auto;html=1;entryX=1;entryY=0.5;entryDx=0;entryDy=0;strokeColor=default;align=center;verticalAlign=middle;fontFamily=Helvetica;fontSize=11;fontColor=default;labelBackgroundColor=default;endArrow=none;endFill=0;" edge="1" parent="1" source="5xnsENIm2od7bIKtMCNN-20" target="5xnsENIm2od7bIKtMCNN-43">
          <mxGeometry relative="1" as="geometry" />
        </mxCell>
        <mxCell id="5xnsENIm2od7bIKtMCNN-73" style="edgeStyle=orthogonalEdgeStyle;shape=connector;rounded=0;orthogonalLoop=1;jettySize=auto;html=1;entryX=1;entryY=0.5;entryDx=0;entryDy=0;strokeColor=default;align=center;verticalAlign=middle;fontFamily=Helvetica;fontSize=11;fontColor=default;labelBackgroundColor=default;endArrow=none;endFill=0;" edge="1" parent="1" source="5xnsENIm2od7bIKtMCNN-20" target="5xnsENIm2od7bIKtMCNN-72">
          <mxGeometry relative="1" as="geometry" />
        </mxCell>
        <mxCell id="5xnsENIm2od7bIKtMCNN-20" value="PAQUETE" style="whiteSpace=wrap;html=1;align=center;fillColor=#dae8fc;strokeColor=#6c8ebf;" vertex="1" parent="1">
          <mxGeometry x="200" y="420" width="100" height="40" as="geometry" />
        </mxCell>
        <mxCell id="5xnsENIm2od7bIKtMCNN-24" style="edgeStyle=orthogonalEdgeStyle;shape=connector;rounded=0;orthogonalLoop=1;jettySize=auto;html=1;entryX=1;entryY=0.5;entryDx=0;entryDy=0;strokeColor=default;align=center;verticalAlign=middle;fontFamily=Helvetica;fontSize=11;fontColor=default;labelBackgroundColor=default;endArrow=none;endFill=0;" edge="1" parent="1" source="5xnsENIm2od7bIKtMCNN-21" target="5xnsENIm2od7bIKtMCNN-20">
          <mxGeometry relative="1" as="geometry" />
        </mxCell>
        <mxCell id="5xnsENIm2od7bIKtMCNN-21" value="transporta" style="shape=rhombus;perimeter=rhombusPerimeter;whiteSpace=wrap;html=1;align=center;fontFamily=Helvetica;fontSize=11;labelBackgroundColor=default;fillColor=#fff2cc;strokeColor=#d6b656;" vertex="1" parent="1">
          <mxGeometry x="350" y="310" width="120" height="60" as="geometry" />
        </mxCell>
        <mxCell id="5xnsENIm2od7bIKtMCNN-25" value="1:N" style="text;html=1;whiteSpace=wrap;strokeColor=none;fillColor=none;align=center;verticalAlign=middle;rounded=0;fontFamily=Helvetica;fontSize=11;fontColor=default;labelBackgroundColor=default;" vertex="1" parent="1">
          <mxGeometry x="340" y="290" width="60" height="30" as="geometry" />
        </mxCell>
        <mxCell id="5xnsENIm2od7bIKtMCNN-26" value="id_Camionero (FK)" style="ellipse;whiteSpace=wrap;html=1;align=center;fillColor=#f5f5f5;fontColor=#333333;strokeColor=#666666;" vertex="1" parent="1">
          <mxGeometry x="60" y="320" width="100" height="40" as="geometry" />
        </mxCell>
        <mxCell id="5xnsENIm2od7bIKtMCNN-28" value="codigo" style="ellipse;whiteSpace=wrap;html=1;align=center;fillColor=#f5f5f5;fontColor=#333333;strokeColor=#666666;" vertex="1" parent="1">
          <mxGeometry x="60" y="370" width="100" height="40" as="geometry" />
        </mxCell>
        <mxCell id="5xnsENIm2od7bIKtMCNN-29" value="descripcion" style="ellipse;whiteSpace=wrap;html=1;align=center;fillColor=#f5f5f5;fontColor=#333333;strokeColor=#666666;" vertex="1" parent="1">
          <mxGeometry x="60" y="420" width="100" height="40" as="geometry" />
        </mxCell>
        <mxCell id="5xnsENIm2od7bIKtMCNN-30" value="destinatario" style="ellipse;whiteSpace=wrap;html=1;align=center;fillColor=#f5f5f5;fontColor=#333333;strokeColor=#666666;" vertex="1" parent="1">
          <mxGeometry x="60" y="470" width="100" height="40" as="geometry" />
        </mxCell>
        <mxCell id="5xnsENIm2od7bIKtMCNN-31" value="direccion" style="ellipse;whiteSpace=wrap;html=1;align=center;fillColor=#f5f5f5;fontColor=#333333;strokeColor=#666666;" vertex="1" parent="1">
          <mxGeometry x="60" y="520" width="100" height="40" as="geometry" />
        </mxCell>
        <mxCell id="5xnsENIm2od7bIKtMCNN-40" style="edgeStyle=orthogonalEdgeStyle;shape=connector;rounded=0;orthogonalLoop=1;jettySize=auto;html=1;entryX=0.5;entryY=1;entryDx=0;entryDy=0;strokeColor=default;align=center;verticalAlign=middle;fontFamily=Helvetica;fontSize=11;fontColor=default;labelBackgroundColor=default;endArrow=none;endFill=0;" edge="1" parent="1" source="5xnsENIm2od7bIKtMCNN-37" target="5xnsENIm2od7bIKtMCNN-39">
          <mxGeometry relative="1" as="geometry" />
        </mxCell>
        <mxCell id="5xnsENIm2od7bIKtMCNN-48" style="edgeStyle=orthogonalEdgeStyle;shape=connector;rounded=0;orthogonalLoop=1;jettySize=auto;html=1;entryX=0.5;entryY=0;entryDx=0;entryDy=0;strokeColor=default;align=center;verticalAlign=middle;fontFamily=Helvetica;fontSize=11;fontColor=default;labelBackgroundColor=default;endArrow=none;endFill=0;" edge="1" parent="1" source="5xnsENIm2od7bIKtMCNN-37" target="5xnsENIm2od7bIKtMCNN-45">
          <mxGeometry relative="1" as="geometry" />
        </mxCell>
        <mxCell id="5xnsENIm2od7bIKtMCNN-50" style="edgeStyle=orthogonalEdgeStyle;shape=connector;rounded=0;orthogonalLoop=1;jettySize=auto;html=1;entryX=0;entryY=0.5;entryDx=0;entryDy=0;strokeColor=default;align=center;verticalAlign=middle;fontFamily=Helvetica;fontSize=11;fontColor=default;labelBackgroundColor=default;endArrow=none;endFill=0;" edge="1" parent="1" source="5xnsENIm2od7bIKtMCNN-37" target="5xnsENIm2od7bIKtMCNN-47">
          <mxGeometry relative="1" as="geometry">
            <Array as="points">
              <mxPoint x="580" y="680" />
              <mxPoint x="624" y="680" />
            </Array>
          </mxGeometry>
        </mxCell>
        <mxCell id="5xnsENIm2od7bIKtMCNN-71" style="edgeStyle=orthogonalEdgeStyle;shape=connector;rounded=0;orthogonalLoop=1;jettySize=auto;html=1;entryX=0;entryY=0.5;entryDx=0;entryDy=0;strokeColor=default;align=center;verticalAlign=middle;fontFamily=Helvetica;fontSize=11;fontColor=default;labelBackgroundColor=default;endArrow=none;endFill=0;" edge="1" parent="1" source="5xnsENIm2od7bIKtMCNN-37" target="5xnsENIm2od7bIKtMCNN-70">
          <mxGeometry relative="1" as="geometry" />
        </mxCell>
        <mxCell id="5xnsENIm2od7bIKtMCNN-37" value="PROVINCIA" style="whiteSpace=wrap;html=1;align=center;fillColor=#dae8fc;strokeColor=#6c8ebf;" vertex="1" parent="1">
          <mxGeometry x="530" y="570" width="100" height="40" as="geometry" />
        </mxCell>
        <mxCell id="5xnsENIm2od7bIKtMCNN-39" value="llega" style="shape=rhombus;perimeter=rhombusPerimeter;whiteSpace=wrap;html=1;align=center;fontFamily=Helvetica;fontSize=11;labelBackgroundColor=default;fillColor=#fff2cc;strokeColor=#d6b656;" vertex="1" parent="1">
          <mxGeometry x="340" y="510" width="120" height="60" as="geometry" />
        </mxCell>
        <mxCell id="5xnsENIm2od7bIKtMCNN-42" value="1:N" style="text;html=1;whiteSpace=wrap;strokeColor=none;fillColor=none;align=center;verticalAlign=middle;rounded=0;fontFamily=Helvetica;fontSize=11;fontColor=default;labelBackgroundColor=default;" vertex="1" parent="1">
          <mxGeometry x="410" y="490" width="60" height="30" as="geometry" />
        </mxCell>
        <mxCell id="5xnsENIm2od7bIKtMCNN-43" value="id_Paquete (PK)" style="ellipse;whiteSpace=wrap;html=1;align=center;fillColor=#f5f5f5;fontColor=#333333;strokeColor=#666666;" vertex="1" parent="1">
          <mxGeometry x="60" y="260" width="100" height="40" as="geometry" />
        </mxCell>
        <mxCell id="5xnsENIm2od7bIKtMCNN-45" value="codigo" style="ellipse;whiteSpace=wrap;html=1;align=center;fillColor=#f5f5f5;fontColor=#333333;strokeColor=#666666;" vertex="1" parent="1">
          <mxGeometry x="530" y="690" width="100" height="40" as="geometry" />
        </mxCell>
        <mxCell id="5xnsENIm2od7bIKtMCNN-47" value="nombre" style="ellipse;whiteSpace=wrap;html=1;align=center;fillColor=#f5f5f5;fontColor=#333333;strokeColor=#666666;" vertex="1" parent="1">
          <mxGeometry x="624" y="670" width="100" height="40" as="geometry" />
        </mxCell>
        <mxCell id="5xnsENIm2od7bIKtMCNN-51" value="conduce" style="shape=rhombus;perimeter=rhombusPerimeter;whiteSpace=wrap;html=1;align=center;fontFamily=Helvetica;fontSize=11;labelBackgroundColor=default;fillColor=#fff2cc;strokeColor=#d6b656;" vertex="1" parent="1">
          <mxGeometry x="710" y="310" width="120" height="60" as="geometry" />
        </mxCell>
        <mxCell id="5xnsENIm2od7bIKtMCNN-54" style="edgeStyle=orthogonalEdgeStyle;shape=connector;rounded=0;orthogonalLoop=1;jettySize=auto;html=1;entryX=1;entryY=0.5;entryDx=0;entryDy=0;strokeColor=default;align=center;verticalAlign=middle;fontFamily=Helvetica;fontSize=11;fontColor=default;labelBackgroundColor=default;endArrow=none;endFill=0;" edge="1" parent="1" source="5xnsENIm2od7bIKtMCNN-53" target="5xnsENIm2od7bIKtMCNN-51">
          <mxGeometry relative="1" as="geometry" />
        </mxCell>
        <mxCell id="5xnsENIm2od7bIKtMCNN-64" style="edgeStyle=orthogonalEdgeStyle;shape=connector;rounded=0;orthogonalLoop=1;jettySize=auto;html=1;entryX=0.5;entryY=1;entryDx=0;entryDy=0;strokeColor=default;align=center;verticalAlign=middle;fontFamily=Helvetica;fontSize=11;fontColor=default;labelBackgroundColor=default;endArrow=none;endFill=0;" edge="1" parent="1" source="5xnsENIm2od7bIKtMCNN-53" target="5xnsENIm2od7bIKtMCNN-56">
          <mxGeometry relative="1" as="geometry">
            <Array as="points">
              <mxPoint x="990" y="450" />
              <mxPoint x="990" y="410" />
              <mxPoint x="970" y="410" />
            </Array>
          </mxGeometry>
        </mxCell>
        <mxCell id="5xnsENIm2od7bIKtMCNN-65" style="edgeStyle=orthogonalEdgeStyle;shape=connector;rounded=0;orthogonalLoop=1;jettySize=auto;html=1;entryX=0;entryY=1;entryDx=0;entryDy=0;strokeColor=default;align=center;verticalAlign=middle;fontFamily=Helvetica;fontSize=11;fontColor=default;labelBackgroundColor=default;endArrow=none;endFill=0;" edge="1" parent="1" source="5xnsENIm2od7bIKtMCNN-53" target="5xnsENIm2od7bIKtMCNN-57">
          <mxGeometry relative="1" as="geometry">
            <Array as="points">
              <mxPoint x="1020" y="450" />
              <mxPoint x="1020" y="384" />
            </Array>
          </mxGeometry>
        </mxCell>
        <mxCell id="5xnsENIm2od7bIKtMCNN-66" style="edgeStyle=orthogonalEdgeStyle;shape=connector;rounded=0;orthogonalLoop=1;jettySize=auto;html=1;entryX=0;entryY=0.5;entryDx=0;entryDy=0;strokeColor=default;align=center;verticalAlign=middle;fontFamily=Helvetica;fontSize=11;fontColor=default;labelBackgroundColor=default;endArrow=none;endFill=0;" edge="1" parent="1" source="5xnsENIm2od7bIKtMCNN-53" target="5xnsENIm2od7bIKtMCNN-60">
          <mxGeometry relative="1" as="geometry">
            <Array as="points">
              <mxPoint x="1020" y="450" />
              <mxPoint x="1020" y="420" />
            </Array>
          </mxGeometry>
        </mxCell>
        <mxCell id="5xnsENIm2od7bIKtMCNN-67" style="edgeStyle=orthogonalEdgeStyle;shape=connector;rounded=0;orthogonalLoop=1;jettySize=auto;html=1;entryX=0;entryY=0.5;entryDx=0;entryDy=0;strokeColor=default;align=center;verticalAlign=middle;fontFamily=Helvetica;fontSize=11;fontColor=default;labelBackgroundColor=default;endArrow=none;endFill=0;" edge="1" parent="1" source="5xnsENIm2od7bIKtMCNN-53" target="5xnsENIm2od7bIKtMCNN-61">
          <mxGeometry relative="1" as="geometry" />
        </mxCell>
        <mxCell id="5xnsENIm2od7bIKtMCNN-68" style="edgeStyle=orthogonalEdgeStyle;shape=connector;rounded=0;orthogonalLoop=1;jettySize=auto;html=1;entryX=0;entryY=0;entryDx=0;entryDy=0;strokeColor=default;align=center;verticalAlign=middle;fontFamily=Helvetica;fontSize=11;fontColor=default;labelBackgroundColor=default;endArrow=none;endFill=0;" edge="1" parent="1" source="5xnsENIm2od7bIKtMCNN-53" target="5xnsENIm2od7bIKtMCNN-62">
          <mxGeometry relative="1" as="geometry">
            <Array as="points">
              <mxPoint x="1010" y="450" />
              <mxPoint x="1010" y="506" />
            </Array>
          </mxGeometry>
        </mxCell>
        <mxCell id="5xnsENIm2od7bIKtMCNN-69" style="edgeStyle=orthogonalEdgeStyle;shape=connector;rounded=0;orthogonalLoop=1;jettySize=auto;html=1;entryX=0.5;entryY=0;entryDx=0;entryDy=0;strokeColor=default;align=center;verticalAlign=middle;fontFamily=Helvetica;fontSize=11;fontColor=default;labelBackgroundColor=default;endArrow=none;endFill=0;" edge="1" parent="1" source="5xnsENIm2od7bIKtMCNN-53" target="5xnsENIm2od7bIKtMCNN-63">
          <mxGeometry relative="1" as="geometry">
            <Array as="points">
              <mxPoint x="980" y="450" />
              <mxPoint x="980" y="490" />
              <mxPoint x="990" y="490" />
            </Array>
          </mxGeometry>
        </mxCell>
        <mxCell id="5xnsENIm2od7bIKtMCNN-53" value="CAMION" style="whiteSpace=wrap;html=1;align=center;fillColor=#dae8fc;strokeColor=#6c8ebf;" vertex="1" parent="1">
          <mxGeometry x="870" y="430" width="100" height="40" as="geometry" />
        </mxCell>
        <mxCell id="5xnsENIm2od7bIKtMCNN-55" value="N:M" style="text;html=1;whiteSpace=wrap;strokeColor=none;fillColor=none;align=center;verticalAlign=middle;rounded=0;fontFamily=Helvetica;fontSize=11;fontColor=default;labelBackgroundColor=default;" vertex="1" parent="1">
          <mxGeometry x="780" y="300" width="60" height="30" as="geometry" />
        </mxCell>
        <mxCell id="5xnsENIm2od7bIKtMCNN-56" value="id_Camionero (FK)" style="ellipse;whiteSpace=wrap;html=1;align=center;fillColor=#f5f5f5;fontColor=#333333;strokeColor=#666666;" vertex="1" parent="1">
          <mxGeometry x="920" y="350" width="100" height="40" as="geometry" />
        </mxCell>
        <mxCell id="5xnsENIm2od7bIKtMCNN-57" value="id_Camion (PK)" style="ellipse;whiteSpace=wrap;html=1;align=center;fillColor=#f5f5f5;fontColor=#333333;strokeColor=#666666;" vertex="1" parent="1">
          <mxGeometry x="1030" y="350" width="100" height="40" as="geometry" />
        </mxCell>
        <mxCell id="5xnsENIm2od7bIKtMCNN-58" value="id_Camion (FK)" style="ellipse;whiteSpace=wrap;html=1;align=center;fillColor=#f5f5f5;fontColor=#333333;strokeColor=#666666;" vertex="1" parent="1">
          <mxGeometry x="690" y="220" width="100" height="40" as="geometry" />
        </mxCell>
        <mxCell id="5xnsENIm2od7bIKtMCNN-60" value="matricula" style="ellipse;whiteSpace=wrap;html=1;align=center;fillColor=#f5f5f5;fontColor=#333333;strokeColor=#666666;" vertex="1" parent="1">
          <mxGeometry x="1050" y="400" width="100" height="40" as="geometry" />
        </mxCell>
        <mxCell id="5xnsENIm2od7bIKtMCNN-61" value="modelo" style="ellipse;whiteSpace=wrap;html=1;align=center;fillColor=#f5f5f5;fontColor=#333333;strokeColor=#666666;" vertex="1" parent="1">
          <mxGeometry x="1050" y="450" width="100" height="40" as="geometry" />
        </mxCell>
        <mxCell id="5xnsENIm2od7bIKtMCNN-62" value="tipo" style="ellipse;whiteSpace=wrap;html=1;align=center;fillColor=#f5f5f5;fontColor=#333333;strokeColor=#666666;" vertex="1" parent="1">
          <mxGeometry x="1040" y="500" width="100" height="40" as="geometry" />
        </mxCell>
        <mxCell id="5xnsENIm2od7bIKtMCNN-63" value="potencia" style="ellipse;whiteSpace=wrap;html=1;align=center;fillColor=#f5f5f5;fontColor=#333333;strokeColor=#666666;" vertex="1" parent="1">
          <mxGeometry x="940" y="510" width="100" height="40" as="geometry" />
        </mxCell>
        <mxCell id="5xnsENIm2od7bIKtMCNN-70" value="id_Provincia (PK)" style="ellipse;whiteSpace=wrap;html=1;align=center;fillColor=#f5f5f5;fontColor=#333333;strokeColor=#666666;" vertex="1" parent="1">
          <mxGeometry x="610" y="620" width="100" height="40" as="geometry" />
        </mxCell>
        <mxCell id="5xnsENIm2od7bIKtMCNN-72" value="id_Provincia (FK)" style="ellipse;whiteSpace=wrap;html=1;align=center;fillColor=#f5f5f5;fontColor=#333333;strokeColor=#666666;" vertex="1" parent="1">
          <mxGeometry x="60" y="210" width="100" height="40" as="geometry" />
        </mxCell>
      </root>
    </mxGraphModel>
  </diagram>
</mxfile>
